<svg width="125" height="332" viewBox="0 0 125 332" fill="none" xmlns="http://www.w3.org/2000/svg">
<path d="M36.8352 14.1617C48.4419 5.38025 61.4355 0.989502 76.0824 0.989502L76.077 0.994585C97.3595 0.994585 122.509 11.321 122.509 52.9009V129.602C122.509 131.152 121.96 131.924 120.023 131.924H86.8569C84.9207 131.924 84.0939 131.152 84.0939 129.602V56.0009C84.0939 40.5062 76.9037 32.2431 62.5341 32.2431C53.1357 32.2431 45.396 35.3379 39.5927 40.247V293.01C39.5927 300.241 42.0783 302.823 48.7138 302.823C50.9274 302.823 51.2048 302.823 53.6904 302.564C54.7945 302.564 55.0719 303.082 55.0719 304.373V326.581C55.0719 328.649 54.7945 329.162 53.1356 329.68C49.8179 330.971 44.5639 332.003 35.9976 332.003C16.0966 332.003 1.17225 325.031 1.17225 296.364V33.5288C1.17225 24.7524 0.622918 11.321 0.0681376 5.63942C-0.209252 4.34354 0.345528 3.5711 2.00436 3.5711H31.0264C33.2401 3.5711 34.0668 4.34863 34.6216 5.63942C35.7311 7.96184 36.2804 10.5485 36.8352 14.1617Z" fill="white"/>
<path d="M103.718 147.353C91.2787 147.353 82.1577 155.616 82.1577 167.238C82.1577 179.379 90.4466 187.383 103.44 187.383C116.434 187.383 125 178.861 125 167.238C125 155.616 116.983 147.353 103.718 147.353Z" fill="white"/>
<path d="M86.3075 201.068C84.6486 201.068 84.0939 201.846 84.0939 203.137H84.1048V327.099C84.1048 328.649 84.9315 329.421 86.8678 329.421H120.034C122.242 329.421 122.52 328.649 122.52 327.099V203.137C122.52 201.587 121.965 201.068 120.306 201.068H86.3075Z" fill="white"/>
</svg>
